<svg width="100%" height="100%" viewBox="0 0 50 50" version="1.1" xmlns="http://www.w3.org/2000/svg" xmlns:xlink="http://www.w3.org/1999/xlink" xml:space="preserve" xmlns:serif="http://www.serif.com/" style="fill-rule:evenodd;clip-rule:evenodd;stroke-linejoin:round;stroke-miterlimit:2;">
    <style>
    path {
      fill: #000;
      fill-rule: nonzero;
    }
    @media (prefers-color-scheme: dark) {
      path {
        fill: #fff;
        fill-rule: nonzero;
      }
    }
    </style>
    <path d="M12.944,9.547c-1.052,0.15 -3.006,0.601 -3.757,1.052c-2.856,1.202 -5.11,4.058 -5.862,7.214c-0.3,1.503 -0.15,2.856 0.451,3.457c0.301,0.301 0.451,0.301 2.255,0.301l1.803,-0.151l-0.451,-1.052c-0.3,-0.751 -0.451,-1.052 -0.451,-2.555c0.151,-1.803 0.151,-1.803 0.602,-3.006c0.751,-1.503 2.254,-2.855 3.607,-3.607c1.954,-0.901 4.058,-0.751 4.96,0.301c0.901,1.052 0.601,2.705 -1.052,7.966c-2.856,9.318 -4.059,14.578 -4.059,18.035c0,1.653 0.151,2.555 0.602,3.006l0.451,0.451l1.503,-0.451l1.653,-0.601l0.15,-1.353c0.15,-1.803 0.601,-3.156 2.405,-7.064c1.353,-3.306 5.411,-11.573 5.561,-11.422l-1.052,3.006c-2.104,6.613 -3.156,12.023 -2.706,14.428c0.301,1.203 0.451,1.353 1.804,0.902l1.353,-0.451l-0,-0.902c0.15,-0.901 0.601,-2.404 1.803,-4.659l0.451,-0.751l0,2.404c0,2.706 0,3.307 0.451,3.307l1.954,-0.601l1.803,-0.601l-0.15,-1.954c-0.103,-1.639 0.154,-3.281 0.752,-4.81l2.705,2.405c3.757,3.757 6.763,6.162 8.867,7.064c1.353,0.751 3.457,1.202 3.608,1.052l3.156,-2.254c0.3,-0.451 -0.151,-0.602 -1.954,-0.602c-1.954,-0.15 -3.156,-0.451 -5.11,-1.503c-2.104,-1.052 -5.261,-3.306 -7.665,-5.561l-1.052,-1.052l1.052,-0.3c1.503,-0.301 3.006,-1.052 3.757,-1.804c0.902,-0.902 1.804,-2.405 2.405,-3.908c0.451,-1.202 0.451,-1.202 0.3,-1.503l-0.751,-0.15l-2.254,0.15l-1.654,0.151l-1.352,3.306c-0.752,1.353 -2.405,3.157 -3.006,3.307c-0.752,0.15 -0.902,0.601 1.352,-5.561c1.954,-5.411 3.457,-9.92 3.307,-10.07c-0.15,-0.15 -4.359,0.601 -4.659,0.751l-2.555,6.764c-1.674,4.581 -3.529,9.093 -5.561,13.526l1.352,-5.11l1.804,-5.26c2.555,-7.214 3.156,-9.168 3.006,-9.469l-2.555,0.301l-2.555,0.451c-2.628,4.897 -5.133,9.858 -7.515,14.879l1.353,-4.358c1.803,-5.712 2.555,-9.169 2.404,-10.822c-0.451,-3.006 -3.757,-5.26 -7.064,-4.659Z"/>
</svg>
